<?xml version="1.0" encoding="UTF-8" standalone="no"?>
<!-- Created with Inkscape (http://www.inkscape.org/) -->

<svg
   width="1920"
   height="1080"
   viewBox="0 0 1920 1080"
   version="1.1"
   id="svg1"
   xml:space="preserve"
   xmlns:xlink="http://www.w3.org/1999/xlink"
   xmlns="http://www.w3.org/2000/svg"
   xmlns:svg="http://www.w3.org/2000/svg"><defs
     id="defs1"><pattern
       xlink:href="#Strips1_8"
       preserveAspectRatio="xMidYMid"
       id="pattern8"
       patternTransform="matrix(2.1213203,2.1213203,-2.1213203,2.1213203,0,0)"
       x="0"
       y="0"
       width="14.4" /><pattern
       patternUnits="userSpaceOnUse"
       width="9"
       height="1"
       patternTransform="translate(0,0) scale(2,2)"
       preserveAspectRatio="xMidYMid"
       id="Strips1_8"
       style="fill:#ffffff">
      <rect
   style="stroke:none"
   x="0"
   y="-0.5"
   width="1"
   height="2"
   id="rect170" />
    </pattern><clipPath
       clipPathUnits="userSpaceOnUse"
       id="clipPath60"><rect
         style="display:none;fill:none;fill-opacity:1;stroke:#feaf56;stroke-width:3.77953;stroke-linecap:butt;stroke-linejoin:round;stroke-dasharray:none;stroke-opacity:1"
         id="rect60"
         width="1386.855"
         height="275.96603"
         x="282.44043"
         y="725.24908"
         d="M 282.44043,725.24908 H 1669.2954 V 1001.2151 H 282.44043 Z" /><path
         id="lpe_path-effect61"
         style="fill:none;fill-opacity:1;stroke:#feaf56;stroke-width:3.77953;stroke-linecap:butt;stroke-linejoin:round;stroke-dasharray:none;stroke-opacity:1"
         class="powerclip"
         d="M 690.67608,115.49049 H 1229.3239 V 964.50951 H 690.67608 Z M 282.44043,725.24908 V 1001.2151 H 1669.2954 V 725.24908 Z" /></clipPath><clipPath
       clipPathUnits="userSpaceOnUse"
       id="clipPath61"><rect
         style="display:none;fill:none;fill-opacity:1;stroke:#feaf56;stroke-width:3.77953;stroke-linecap:butt;stroke-linejoin:round;stroke-dasharray:none;stroke-opacity:1"
         id="rect61"
         width="1386.855"
         height="275.96603"
         x="282.44043"
         y="725.24908"
         d="M 282.44043,725.24908 H 1669.2954 V 1001.2151 H 282.44043 Z" /><path
         id="lpe_path-effect62"
         style="fill:none;fill-opacity:1;stroke:#feaf56;stroke-width:3.77953;stroke-linecap:butt;stroke-linejoin:round;stroke-dasharray:none;stroke-opacity:1"
         class="powerclip"
         d="m 537.04875,117.04875 h 845.90255 v 845.9025 H 537.04875 Z M 282.44043,725.24908 V 1001.2151 H 1669.2954 V 725.24908 Z" /></clipPath></defs><g
     id="layer4"
     style="display:inline"><rect
       style="display:inline;fill:#363c45;fill-opacity:1;stroke-width:7;stroke-linejoin:round"
       id="rect8"
       width="1920"
       height="1080"
       x="0"
       y="0" /><rect
       style="display:inline;fill:url(#pattern8);fill-opacity:1;stroke-width:7;stroke-linejoin:round"
       id="rect1"
       width="1920"
       height="1080"
       x="0"
       y="0" /><circle
       style="fill:#363c45;fill-opacity:1;stroke-width:7;stroke-linejoin:round"
       id="path52"
       cx="243.48112"
       cy="434.39618"
       r="515.60382" /><circle
       style="fill:#363c45;fill-opacity:1;stroke-width:7;stroke-linejoin:round"
       id="path53"
       cx="812.09058"
       cy="814.29303"
       r="381.79303" /><circle
       style="display:inline;fill:#363c45;fill-opacity:1;stroke-width:7;stroke-linejoin:round"
       id="path54"
       cx="1555.1863"
       cy="250"
       r="595.18622" /></g><g
     id="layer7"
     transform="matrix(3.5713403,0,0,3.5713403,-149.0462,-10.784973)"
     style="fill:#000000;fill-opacity:1;stroke:#ffffff;stroke-width:0.280007;stroke-opacity:1"><path
       id="path83"
       style="fill:#000000;fill-opacity:1;stroke:none;stroke-width:0.280007;stroke-opacity:1"
       d="m 119.34318,167.13674 -2.87335,6.5725 -0.40798,3.13203 0.37134,3.27368 -7.27034,1.44597 -0.90947,-3.16648 -1.57559,-2.73718 -5.16974,-4.97231 -3.914629,1.62098 -0.139457,7.17189 0.82088,3.04945 1.596367,2.88211 -6.163433,4.11861 -2.051926,-2.57748 -2.503656,-1.92614 -6.679149,-2.61523 -2.995855,2.99586 2.615768,6.67915 1.925594,2.50311 2.577486,2.05192 -4.118071,6.16398 -2.882102,-1.59636 -3.049998,-0.82143 -7.171349,0.14 -1.621524,3.91409 4.97231,5.17028 2.737177,1.57558 3.166485,0.90893 -1.445974,7.27089 -3.273674,-0.37189 -3.132031,0.40853 -6.571959,2.87335 v 4.23675 l 6.571959,2.87389 3.132031,0.40798 3.273674,-0.37188 1.445974,7.27088 -3.166485,0.90948 -2.737177,1.57558 -4.97231,5.16974 1.621524,3.91463 7.171349,0.13946 3.049998,-0.82143 2.882102,-1.59637 4.118071,6.16398 -2.577486,2.05193 -1.925594,2.50311 -2.615768,6.67915 2.995855,2.99585 6.679149,-2.61522 2.503656,-1.92559 2.051926,-2.57804 6.163433,4.11862 -1.596367,2.8821 -0.82088,3.05 0.139457,7.17135 3.914629,1.62152 5.16974,-4.97231 1.57559,-2.73717 0.90947,-3.16703 7.27034,1.44652 -0.37134,3.27367 0.40798,3.13148 2.87335,6.57251 h 4.23729 l 2.87336,-6.57251 0.40798,-3.13148 -0.37134,-3.27367 7.27033,-1.44652 0.90948,3.16703 1.57559,2.73717 5.16973,4.97231 3.91463,-1.62152 0.13946,-7.17135 -0.82143,-3.05 -1.59582,-2.8821 6.16343,-4.11862 2.05193,2.57804 2.50365,1.92559 6.67861,2.61522 2.9964,-2.99585 -2.61577,-6.67915 -1.92559,-2.50311 -2.57804,-2.05193 4.11862,-6.16398 2.8821,1.59637 3.05,0.82143 7.17135,-0.13946 1.62153,-3.91463 -4.97231,-5.16974 -2.73718,-1.57558 -3.16703,-0.90948 1.44652,-7.27088 3.27367,0.37188 3.13203,-0.40798 6.57196,-2.87389 v -4.23675 l -6.57196,-2.87335 -3.13203,-0.40853 -3.27367,0.37189 -1.44652,-7.27089 3.16703,-0.90893 2.73718,-1.57558 4.97231,-5.17028 -1.62153,-3.91409 -7.17135,-0.14 -3.05,0.82143 -2.8821,1.59636 -4.11862,-6.16398 2.57804,-2.05192 1.92559,-2.50311 2.61577,-6.67915 -2.9964,-2.99586 -6.67861,2.61523 -2.50365,1.92614 -2.05193,2.57748 -6.16343,-4.11861 1.59582,-2.88211 0.82143,-3.04945 -0.13946,-7.17189 -3.91463,-1.62098 -5.16973,4.97231 -1.57559,2.73718 -0.90948,3.16648 -7.27033,-1.44597 0.37134,-3.27368 -0.40798,-3.13203 -2.87336,-6.5725 z m 2.11865,37.25678 a 20,20 0 0 1 19.99971,20.00026 20,20 0 0 1 -19.99971,19.99971 20,20 0 0 1 -20.00027,-19.99971 20,20 0 0 1 20.00027,-20.00026 z" /><path
       id="path84"
       style="fill:#000000;fill-opacity:1;stroke:none;stroke-width:0.365721;stroke-opacity:1"
       d="m 119.34318,167.13674 -2.87335,6.5725 -0.40798,3.13203 0.37134,3.27368 -7.27034,1.44597 -0.90947,-3.16648 -1.57559,-2.73718 -5.16974,-4.97231 -3.914629,1.62098 -0.139457,7.17189 0.82088,3.04945 1.596367,2.88211 -6.163433,4.11861 -2.051926,-2.57748 -2.503656,-1.92614 -6.679149,-2.61523 -2.995855,2.99586 2.615768,6.67915 1.925594,2.50311 2.577486,2.05192 -4.118071,6.16398 -2.882102,-1.59636 -3.049998,-0.82143 -7.171349,0.14 -1.621524,3.91409 4.97231,5.17028 2.737177,1.57558 3.166485,0.90893 -1.445974,7.27089 -3.273674,-0.37189 -3.132031,0.40853 -6.571959,2.87335 v 4.23675 l 6.571959,2.87389 3.132031,0.40798 3.273674,-0.37188 1.445974,7.27088 -3.166485,0.90948 -2.737177,1.57558 -4.97231,5.16974 1.621524,3.91463 7.171349,0.13946 3.049998,-0.82143 2.882102,-1.59637 4.118071,6.16398 -2.577486,2.05193 -1.925594,2.50311 -2.615768,6.67915 2.995855,2.99585 6.679149,-2.61522 2.503656,-1.92559 2.051926,-2.57804 6.163433,4.11862 -1.596367,2.8821 -0.82088,3.05 0.139457,7.17135 3.914629,1.62152 5.16974,-4.97231 1.57559,-2.73717 0.90947,-3.16703 7.27034,1.44652 -0.37134,3.27367 0.40798,3.13148 2.87335,6.57251 h 4.23729 l 2.87336,-6.57251 0.40798,-3.13148 -0.37134,-3.27367 7.27033,-1.44652 0.90948,3.16703 1.57559,2.73717 5.16973,4.97231 3.91463,-1.62152 0.13946,-7.17135 -0.82143,-3.05 -1.59582,-2.8821 6.16343,-4.11862 2.05193,2.57804 2.50365,1.92559 6.67861,2.61522 2.9964,-2.99585 -2.61577,-6.67915 -1.92559,-2.50311 -2.57804,-2.05193 4.11862,-6.16398 2.8821,1.59637 3.05,0.82143 7.17135,-0.13946 1.62153,-3.91463 -4.97231,-5.16974 -2.73718,-1.57558 -3.16703,-0.90948 1.44652,-7.27088 3.27367,0.37188 3.13203,-0.40798 6.57196,-2.87389 v -4.23675 l -6.57196,-2.87335 -3.13203,-0.40853 -3.27367,0.37189 -1.44652,-7.27089 3.16703,-0.90893 2.73718,-1.57558 4.97231,-5.17028 -1.62153,-3.91409 -7.17135,-0.14 -3.05,0.82143 -2.8821,1.59636 -4.11862,-6.16398 2.57804,-2.05192 1.92559,-2.50311 2.61577,-6.67915 -2.9964,-2.99586 -6.67861,2.61523 -2.50365,1.92614 -2.05193,2.57748 -6.16343,-4.11861 1.59582,-2.88211 0.82143,-3.04945 -0.13946,-7.17189 -3.91463,-1.62098 -5.16973,4.97231 -1.57559,2.73718 -0.90948,3.16648 -7.27033,-1.44597 0.37134,-3.27368 -0.40798,-3.13203 -2.87336,-6.5725 z m 2.11865,37.25678 a 20,20 0 0 1 19.99971,20.00026 20,20 0 0 1 -19.99971,19.99971 20,20 0 0 1 -20.00027,-19.99971 20,20 0 0 1 20.00027,-20.00026 z"
       transform="matrix(0.76562978,0,0,0.76562978,135.78995,91.63046)" /><path
       id="path85"
       style="fill:#000000;fill-opacity:1;stroke:none;stroke-width:0.181064;stroke-opacity:1"
       d="m 119.34318,167.13674 -2.87335,6.5725 -0.40798,3.13203 0.37134,3.27368 -7.27034,1.44597 -0.90947,-3.16648 -1.57559,-2.73718 -5.16974,-4.97231 -3.914629,1.62098 -0.139457,7.17189 0.82088,3.04945 1.596367,2.88211 -6.163433,4.11861 -2.051926,-2.57748 -2.503656,-1.92614 -6.679149,-2.61523 -2.995855,2.99586 2.615768,6.67915 1.925594,2.50311 2.577486,2.05192 -4.118071,6.16398 -2.882102,-1.59636 -3.049998,-0.82143 -7.171349,0.14 -1.621524,3.91409 4.97231,5.17028 2.737177,1.57558 3.166485,0.90893 -1.445974,7.27089 -3.273674,-0.37189 -3.132031,0.40853 -6.571959,2.87335 v 4.23675 l 6.571959,2.87389 3.132031,0.40798 3.273674,-0.37188 1.445974,7.27088 -3.166485,0.90948 -2.737177,1.57558 -4.97231,5.16974 1.621524,3.91463 7.171349,0.13946 3.049998,-0.82143 2.882102,-1.59637 4.118071,6.16398 -2.577486,2.05193 -1.925594,2.50311 -2.615768,6.67915 2.995855,2.99585 6.679149,-2.61522 2.503656,-1.92559 2.051926,-2.57804 6.163433,4.11862 -1.596367,2.8821 -0.82088,3.05 0.139457,7.17135 3.914629,1.62152 5.16974,-4.97231 1.57559,-2.73717 0.90947,-3.16703 7.27034,1.44652 -0.37134,3.27367 0.40798,3.13148 2.87335,6.57251 h 4.23729 l 2.87336,-6.57251 0.40798,-3.13148 -0.37134,-3.27367 7.27033,-1.44652 0.90948,3.16703 1.57559,2.73717 5.16973,4.97231 3.91463,-1.62152 0.13946,-7.17135 -0.82143,-3.05 -1.59582,-2.8821 6.16343,-4.11862 2.05193,2.57804 2.50365,1.92559 6.67861,2.61522 2.9964,-2.99585 -2.61577,-6.67915 -1.92559,-2.50311 -2.57804,-2.05193 4.11862,-6.16398 2.8821,1.59637 3.05,0.82143 7.17135,-0.13946 1.62153,-3.91463 -4.97231,-5.16974 -2.73718,-1.57558 -3.16703,-0.90948 1.44652,-7.27088 3.27367,0.37188 3.13203,-0.40798 6.57196,-2.87389 v -4.23675 l -6.57196,-2.87335 -3.13203,-0.40853 -3.27367,0.37189 -1.44652,-7.27089 3.16703,-0.90893 2.73718,-1.57558 4.97231,-5.17028 -1.62153,-3.91409 -7.17135,-0.14 -3.05,0.82143 -2.8821,1.59636 -4.11862,-6.16398 2.57804,-2.05192 1.92559,-2.50311 2.61577,-6.67915 -2.9964,-2.99586 -6.67861,2.61523 -2.50365,1.92614 -2.05193,2.57748 -6.16343,-4.11861 1.59582,-2.88211 0.82143,-3.04945 -0.13946,-7.17189 -3.91463,-1.62098 -5.16973,4.97231 -1.57559,2.73718 -0.90948,3.16648 -7.27033,-1.44597 0.37134,-3.27368 -0.40798,-3.13203 -2.87336,-6.5725 z m 2.11865,37.25678 a 20,20 0 0 1 19.99971,20.00026 20,20 0 0 1 -19.99971,19.99971 20,20 0 0 1 -20.00027,-19.99971 20,20 0 0 1 20.00027,-20.00026 z"
       transform="matrix(1.5464529,0,0,1.5464529,229.07523,-278.53521)" /><path
       id="path86"
       style="fill:#000000;fill-opacity:1;stroke:none;stroke-width:0.280007;stroke-opacity:1"
       d="m 473.95269,152.00289 -2.19992,5.0321 -0.31236,2.39798 0.28431,2.50642 -5.56639,1.10708 -0.69632,-2.42435 -1.20632,-2.09567 -3.9581,-3.80695 -2.99716,1.24107 -0.10677,5.49102 0.62849,2.33475 1.22222,2.20663 -4.7189,3.15333 -1.57102,-1.9734 -1.91687,-1.47471 -5.11376,-2.0023 -2.29371,2.29372 2.00271,5.11376 1.47429,1.91645 1.9734,1.57102 -3.15292,4.71932 -2.20662,-1.22222 -2.33517,-0.62891 -5.4906,0.10719 -1.24149,2.99674 3.80695,3.95852 2.09566,1.20631 2.42436,0.69591 -1.10708,5.56681 -2.50642,-0.28473 -2.39798,0.31278 -5.03169,2.19992 v 3.24378 l 5.03169,2.20034 2.39798,0.31236 2.50642,-0.28472 1.10708,5.5668 -2.42436,0.69633 -2.09566,1.20631 -3.80695,3.9581 1.24149,2.99716 5.4906,0.10678 2.33517,-0.62892 2.20662,-1.22222 3.15292,4.71932 -1.9734,1.57102 -1.47429,1.91646 -2.00271,5.11375 2.29371,2.29372 5.11376,-2.00229 1.91687,-1.47429 1.57102,-1.97383 4.7189,3.15334 -1.22222,2.20662 -0.62849,2.33517 0.10677,5.4906 2.99716,1.24149 3.9581,-3.80695 1.20632,-2.09566 0.69632,-2.42477 5.56639,1.10749 -0.28431,2.50642 0.31236,2.39756 2.19992,5.03211 h 3.2442 l 2.19993,-5.03211 0.31236,-2.39756 -0.28431,-2.50642 5.56638,-1.10749 0.69633,2.42477 1.20632,2.09566 3.9581,3.80695 2.99715,-1.24149 0.10678,-5.4906 -0.62891,-2.33517 -1.22181,-2.20662 4.7189,-3.15334 1.57102,1.97383 1.91687,1.47429 5.11334,2.00229 2.29414,-2.29372 -2.00271,-5.11375 -1.47429,-1.91646 -1.97383,-1.57102 3.15334,-4.71932 2.20662,1.22222 2.33517,0.62892 5.4906,-0.10678 1.24149,-2.99716 -3.80694,-3.9581 -2.09567,-1.20631 -2.42477,-0.69633 1.1075,-5.5668 2.50641,0.28472 2.39798,-0.31236 5.03169,-2.20034 v -3.24378 l -5.03169,-2.19992 -2.39798,-0.31278 -2.50641,0.28473 -1.1075,-5.56681 2.42477,-0.69591 2.09567,-1.20631 3.80694,-3.95852 -1.24149,-2.99674 -5.4906,-0.10719 -2.33517,0.62891 -2.20662,1.22222 -3.15334,-4.71932 1.97383,-1.57102 1.47429,-1.91645 2.00271,-5.11376 -2.29414,-2.29372 -5.11334,2.0023 -1.91687,1.47471 -1.57102,1.9734 -4.7189,-3.15333 1.22181,-2.20663 0.62891,-2.33475 -0.10678,-5.49102 -2.99715,-1.24107 -3.9581,3.80695 -1.20632,2.09567 -0.69633,2.42435 -5.56638,-1.10708 0.28431,-2.50642 -0.31236,-2.39798 -2.19993,-5.0321 z m 1.6221,28.5249 a 15.312596,15.312596 0 0 1 15.31238,15.31279 15.312596,15.312596 0 0 1 -15.31238,15.31238 15.312596,15.312596 0 0 1 -15.3128,-15.31238 15.312596,15.312596 0 0 1 15.3128,-15.31279 z" /><path
       id="path111"
       style="display:none;fill:#efb476;fill-opacity:1;stroke:none;stroke-width:0.280007;stroke-opacity:1"
       d="m 505.42534,76.020919 -2.19992,5.0321 -0.31236,2.39798 0.28431,2.50642 -5.56639,1.10708 -0.69632,-2.42435 -1.20632,-2.09567 -3.9581,-3.80695 -2.99716,1.24107 -0.10677,5.49102 0.62849,2.33475 1.22222,2.20663 -4.7189,3.15333 -1.57102,-1.9734 -1.91687,-1.47471 -5.11376,-2.0023 -2.29371,2.29372 2.00271,5.11376 1.47429,1.91645 1.9734,1.57102 -3.15292,4.719321 -2.20662,-1.22222 -2.33517,-0.62891 -5.4906,0.10719 -1.24149,2.99674 3.80695,3.95852 2.09566,1.20631 2.42436,0.69591 -1.10708,5.56681 -2.50642,-0.28473 -2.39798,0.31278 -5.03169,2.19992 v 3.24378 l 5.03169,2.20034 2.39798,0.31236 2.50642,-0.28472 1.10708,5.5668 -2.42436,0.69633 -2.09566,1.20631 -3.80695,3.9581 1.24149,2.99716 5.4906,0.10678 2.33517,-0.62892 2.20662,-1.22222 3.15292,4.71932 -1.9734,1.57102 -1.47429,1.91646 -2.00271,5.11375 2.29371,2.29372 5.11376,-2.00229 1.91687,-1.47429 1.57102,-1.97383 4.7189,3.15334 -1.22222,2.20662 -0.62849,2.33517 0.10677,5.4906 2.99716,1.24149 3.9581,-3.80695 1.20632,-2.09566 0.69632,-2.42477 5.56639,1.10749 -0.28431,2.50642 0.31236,2.39756 2.19992,5.03211 h 3.2442 l 2.19993,-5.03211 0.31236,-2.39756 -0.28431,-2.50642 5.56638,-1.10749 0.69633,2.42477 1.20632,2.09566 3.9581,3.80695 2.99715,-1.24149 0.10678,-5.4906 -0.62891,-2.33517 -1.22181,-2.20662 4.7189,-3.15334 1.57102,1.97383 1.91687,1.47429 5.11334,2.00229 2.29414,-2.29372 -2.00271,-5.11375 -1.47429,-1.91646 -1.97383,-1.57102 3.15334,-4.71932 2.20662,1.22222 2.33517,0.62892 5.4906,-0.10678 1.24149,-2.99716 -3.80694,-3.9581 -2.09567,-1.20631 -2.42477,-0.69633 1.1075,-5.5668 2.50641,0.28472 2.39798,-0.31236 5.03169,-2.20034 v -3.24378 l -5.03169,-2.19992 -2.39798,-0.31278 -2.50641,0.28473 -1.1075,-5.56681 2.42477,-0.69591 2.09567,-1.20631 3.80694,-3.95852 -1.24149,-2.99674 -5.4906,-0.10719 -2.33517,0.62891 -2.20662,1.22222 -3.15334,-4.719321 1.97383,-1.57102 1.47429,-1.91645 2.00271,-5.11376 -2.29414,-2.29372 -5.11334,2.0023 -1.91687,1.47471 -1.57102,1.9734 -4.7189,-3.15333 1.22181,-2.20663 0.62891,-2.33475 -0.10678,-5.49102 -2.99715,-1.24107 -3.9581,3.80695 -1.20632,2.09567 -0.69633,2.42435 -5.56638,-1.10708 0.28431,-2.50642 -0.31236,-2.39798 -2.19993,-5.0321 z m 1.6221,28.524901 a 15.312596,15.312596 0 0 1 15.31238,15.31279 15.312596,15.312596 0 0 1 -15.31238,15.31238 15.312596,15.312596 0 0 1 -15.3128,-15.31238 15.312596,15.312596 0 0 1 15.3128,-15.31279 z" /><path
       id="path112"
       style="display:none;fill:#efb476;fill-opacity:1;stroke:none;stroke-width:0.280007;stroke-opacity:1"
       d="m 330.68729,237.87706 -2.19992,5.0321 -0.31236,2.39798 0.28431,2.50642 -5.56639,1.10708 -0.69632,-2.42435 -1.20632,-2.09567 -3.9581,-3.80695 -2.99716,1.24107 -0.10677,5.49102 0.62849,2.33475 1.22222,2.20663 -4.7189,3.15333 -1.57102,-1.9734 -1.91687,-1.47471 -5.11376,-2.0023 -2.29371,2.29372 2.00271,5.11376 1.47429,1.91645 1.9734,1.57102 -3.15292,4.71932 -2.20662,-1.22222 -2.33517,-0.62891 -5.4906,0.10719 -1.24149,2.99674 3.80695,3.95852 2.09566,1.20631 2.42436,0.69591 -1.10708,5.56681 -2.50642,-0.28473 -2.39798,0.31278 -5.03169,2.19992 v 3.24378 l 5.03169,2.20034 2.39798,0.31236 2.50642,-0.28472 1.10708,5.5668 -2.42436,0.69633 -2.09566,1.20631 -3.80695,3.9581 1.24149,2.99716 5.4906,0.10678 2.33517,-0.62892 2.20662,-1.22222 3.15292,4.71932 -1.9734,1.57102 -1.47429,1.91646 -2.00271,5.11375 2.29371,2.29372 5.11376,-2.00229 1.91687,-1.47429 1.57102,-1.97383 4.7189,3.15334 -1.22222,2.20662 -0.62849,2.33517 0.10677,5.4906 2.99716,1.24149 3.9581,-3.80695 1.20632,-2.09566 0.69632,-2.42477 5.56639,1.10749 -0.28431,2.50642 0.31236,2.39756 2.19992,5.03211 h 3.2442 l 2.19993,-5.03211 0.31236,-2.39756 -0.28431,-2.50642 5.56638,-1.10749 0.69633,2.42477 1.20632,2.09566 3.9581,3.80695 2.99715,-1.24149 0.10678,-5.4906 -0.62891,-2.33517 -1.22181,-2.20662 4.7189,-3.15334 1.57102,1.97383 1.91687,1.47429 5.11334,2.00229 2.29414,-2.29372 -2.00271,-5.11375 -1.47429,-1.91646 -1.97383,-1.57102 3.15334,-4.71932 2.20662,1.22222 2.33517,0.62892 5.4906,-0.10678 1.24149,-2.99716 -3.80694,-3.9581 -2.09567,-1.20631 -2.42477,-0.69633 1.1075,-5.5668 2.50641,0.28472 2.39798,-0.31236 5.03169,-2.20034 v -3.24378 l -5.03169,-2.19992 -2.39798,-0.31278 -2.50641,0.28473 -1.1075,-5.56681 2.42477,-0.69591 2.09567,-1.20631 3.80694,-3.95852 -1.24149,-2.99674 -5.4906,-0.10719 -2.33517,0.62891 -2.20662,1.22222 -3.15334,-4.71932 1.97383,-1.57102 1.47429,-1.91645 2.00271,-5.11376 -2.29414,-2.29372 -5.11334,2.0023 -1.91687,1.47471 -1.57102,1.9734 -4.7189,-3.15333 1.22181,-2.20663 0.62891,-2.33475 -0.10678,-5.49102 -2.99715,-1.24107 -3.9581,3.80695 -1.20632,2.09567 -0.69633,2.42435 -5.56638,-1.10708 0.28431,-2.50642 -0.31236,-2.39798 -2.19993,-5.0321 z m 1.6221,28.5249 a 15.312596,15.312596 0 0 1 15.31238,15.31279 15.312596,15.312596 0 0 1 -15.31238,15.31238 15.312596,15.312596 0 0 1 -15.3128,-15.31238 15.312596,15.312596 0 0 1 15.3128,-15.31279 z" /><path
       id="path113"
       style="display:none;fill:#efb476;fill-opacity:1;stroke:none;stroke-width:0.280007;stroke-opacity:1"
       d="m 91.60782,8.229092 -2.19992,5.0321 -0.31236,2.39798 0.28431,2.50642 -5.56639,1.10708 -0.69632,-2.42435 -1.20632,-2.09567 -3.9581,-3.80695 -2.99716,1.24107 -0.10677,5.49102 0.62849,2.33475 1.22222,2.20663 -4.7189,3.15333 -1.57102,-1.9734 -1.91687,-1.47471 -5.11376,-2.0023 -2.29371,2.29372 2.00271,5.11376 1.47429,1.91645 1.9734,1.57102 -3.15292,4.71932 -2.20662,-1.22222 -2.33517,-0.62891 -5.4906,0.10719 -1.24149,2.99674 3.80695,3.95852 2.09566,1.20631 2.42436,0.69591 -1.10708,5.56681 -2.50642,-0.28473 -2.39798,0.31278 -5.03169,2.19992 v 3.24378 l 5.03169,2.20034 2.39798,0.31236 2.50642,-0.28472 1.10708,5.5668 -2.42436,0.69633 -2.09566,1.20631 -3.80695,3.9581 1.24149,2.99716 5.4906,0.10678 2.33517,-0.62892 2.20662,-1.22222 3.15292,4.71932 -1.9734,1.57102 -1.47429,1.91646 -2.00271,5.11375 2.29371,2.29372 5.11376,-2.00229 1.91687,-1.47429 1.57102,-1.97383 4.7189,3.15334 -1.22222,2.20662 -0.62849,2.33517 0.10677,5.4906 2.99716,1.24149 3.9581,-3.80695 1.20632,-2.09566 0.69632,-2.42477 5.56639,1.10749 -0.28431,2.50642 0.31236,2.39756 2.19992,5.03211 h 3.2442 l 2.19993,-5.03211 0.31236,-2.39756 -0.28431,-2.50642 5.56638,-1.10749 0.69633,2.42477 1.20632,2.09566 3.9581,3.80695 2.99715,-1.24149 0.10678,-5.4906 -0.62891,-2.33517 -1.22181,-2.20662 4.7189,-3.15334 1.57102,1.97383 1.91687,1.47429 5.11334,2.00229 2.29414,-2.29372 -2.00271,-5.11375 -1.47429,-1.91646 -1.97383,-1.57102 3.15334,-4.71932 2.20662,1.22222 2.33517,0.62892 5.4906,-0.10678 1.24149,-2.99716 -3.80694,-3.9581 -2.09567,-1.20631 -2.42477,-0.69633 1.1075,-5.5668 2.50641,0.28472 2.39798,-0.31236 5.03169,-2.20034 v -3.24378 l -5.03169,-2.19992 -2.39798,-0.31278 -2.50641,0.28473 -1.1075,-5.56681 2.42477,-0.69591 2.09567,-1.20631 3.80694,-3.95852 -1.24149,-2.99674 -5.4906,-0.10719 -2.33517,0.62891 -2.20662,1.22222 -3.15334,-4.71932 1.97383,-1.57102 1.47429,-1.91645 2.00271,-5.11376 -2.29414,-2.29372 -5.11334,2.0023 -1.91687,1.47471 -1.57102,1.9734 -4.7189,-3.15333 1.22181,-2.20663 0.62891,-2.33475 -0.10678,-5.49102 -2.99715,-1.24107 -3.9581,3.80695 -1.20632,2.09567 -0.69633,2.42435 -5.56638,-1.10708 0.28431,-2.50642 -0.31236,-2.39798 -2.19993,-5.0321 z m 1.6221,28.5249 a 15.312596,15.312596 0 0 1 15.31238,15.31279 15.312596,15.312596 0 0 1 -15.31238,15.31238 15.312596,15.312596 0 0 1 -15.3128,-15.31238 15.312596,15.312596 0 0 1 15.3128,-15.31279 z" /></g><g
     id="layer6"><path
       style="display:inline;fill:#363c45;fill-opacity:1;stroke:#626f85;stroke-width:35;stroke-linecap:round;stroke-linejoin:round;stroke-dasharray:none;stroke-opacity:1"
       d="M 95.972937,50 H 389.27647"
       id="path71" /><path
       style="display:inline;fill:#363c45;fill-opacity:1;stroke:#626f85;stroke-width:35.0001;stroke-linecap:round;stroke-linejoin:round;stroke-dasharray:none;stroke-opacity:1"
       d="M 517.95571,150 H 559.3011"
       id="path72" /><path
       style="display:inline;fill:#363c45;fill-opacity:1;stroke:#626f85;stroke-width:35;stroke-linecap:round;stroke-linejoin:round;stroke-dasharray:none;stroke-opacity:1"
       d="M 141.3112,100 H 434.61473"
       id="path73" /><path
       style="display:inline;fill:#363c45;fill-opacity:1;stroke:#626f85;stroke-width:35;stroke-linecap:round;stroke-linejoin:round;stroke-dasharray:none;stroke-opacity:1"
       d="M -45.262884,200 H 248.04065"
       id="path74" /><path
       style="display:inline;fill:#363c45;fill-opacity:1;stroke:#626f85;stroke-width:35;stroke-linecap:round;stroke-linejoin:round;stroke-dasharray:none;stroke-opacity:1"
       d="M 41.641859,300 H 334.94539"
       id="path75" /><path
       style="display:inline;fill:#363c45;fill-opacity:1;stroke:#626f85;stroke-width:34.9999;stroke-linecap:round;stroke-linejoin:round;stroke-dasharray:none;stroke-opacity:1"
       d="M 45.776459,400 H 135.27512"
       id="path76" /><path
       style="display:inline;fill:#363c45;fill-opacity:1;stroke:#626f85;stroke-width:35;stroke-linecap:round;stroke-linejoin:round;stroke-dasharray:none;stroke-opacity:1"
       d="M 64.49962,550 H 357.80315"
       id="path77" /><path
       style="display:inline;fill:#363c45;fill-opacity:1;stroke:#626f85;stroke-width:35;stroke-linecap:round;stroke-linejoin:round;stroke-dasharray:none;stroke-opacity:1"
       d="M 315.12166,650 H 608.42519"
       id="path78" /><path
       style="display:inline;fill:#363c45;fill-opacity:1;stroke:#626f85;stroke-width:35;stroke-linecap:round;stroke-linejoin:round;stroke-dasharray:none;stroke-opacity:1"
       d="m 1252.224,950 h 293.3035"
       id="path79" /><path
       style="display:inline;fill:#363c45;fill-opacity:1;stroke:#626f85;stroke-width:35;stroke-linecap:round;stroke-linejoin:round;stroke-dasharray:none;stroke-opacity:1"
       d="M 1629.4875,1000 H 1922.791"
       id="path80" /><path
       style="display:inline;fill:#363c45;fill-opacity:1;stroke:#626f85;stroke-width:35;stroke-linecap:round;stroke-linejoin:round;stroke-dasharray:none;stroke-opacity:1"
       d="M 1431.3812,1000 H 1580.001"
       id="path90" /><path
       style="display:inline;fill:#363c45;fill-opacity:1;stroke:#626f85;stroke-width:35;stroke-linecap:round;stroke-linejoin:round;stroke-dasharray:none;stroke-opacity:1"
       d="m 1321.5658,1000 h 58.4355"
       id="path91" /><path
       style="display:inline;fill:#363c45;fill-opacity:1;stroke:#626f85;stroke-width:35;stroke-linecap:round;stroke-linejoin:round;stroke-dasharray:none;stroke-opacity:1"
       d="m 1321.5658,1000 h 58.4355"
       id="path92" /><path
       style="display:inline;fill:#363c45;fill-opacity:1;stroke:#626f85;stroke-width:35;stroke-linecap:round;stroke-linejoin:round;stroke-dasharray:none;stroke-opacity:1"
       d="m 1101.018,950 h 108.5887"
       id="path93" /><path
       style="display:inline;fill:#363c45;fill-opacity:1;stroke:#626f85;stroke-width:35;stroke-linecap:round;stroke-linejoin:round;stroke-dasharray:none;stroke-opacity:1"
       d="m 1139.9441,900 h 108.5887"
       id="path94" /><path
       style="display:inline;fill:#363c45;fill-opacity:1;stroke:#626f85;stroke-width:35;stroke-linecap:round;stroke-linejoin:round;stroke-dasharray:none;stroke-opacity:1"
       d="m 1303.7958,900 h 108.5887"
       id="path95" /><path
       style="display:inline;fill:#363c45;fill-opacity:1;stroke:#626f85;stroke-width:35;stroke-linecap:round;stroke-linejoin:round;stroke-dasharray:none;stroke-opacity:1"
       d="m 1461.3106,900 h 108.5887"
       id="path96" /><path
       style="display:inline;fill:#363c45;fill-opacity:1;stroke:#626f85;stroke-width:35;stroke-linecap:round;stroke-linejoin:round;stroke-dasharray:none;stroke-opacity:1"
       d="m 1345.4376,1050 h 108.5887"
       id="path97" /><path
       style="display:inline;fill:#363c45;fill-opacity:1;stroke:#626f85;stroke-width:35;stroke-linecap:round;stroke-linejoin:round;stroke-dasharray:none;stroke-opacity:1"
       d="m 1570.9879,800 h 76.2614"
       id="path99" /><path
       style="display:inline;fill:#363c45;fill-opacity:1;stroke:#626f85;stroke-width:35;stroke-linecap:round;stroke-linejoin:round;stroke-dasharray:none;stroke-opacity:1"
       d="m 1700.4398,800 h 76.2614"
       id="path100" /><path
       style="display:inline;fill:#363c45;fill-opacity:1;stroke:#626f85;stroke-width:35;stroke-linecap:round;stroke-linejoin:round;stroke-dasharray:none;stroke-opacity:1"
       d="m 1370.5648,752.0276 h 293.3035"
       id="path101" /><path
       style="display:inline;fill:#363c45;fill-opacity:1;stroke:#626f85;stroke-width:35;stroke-linecap:round;stroke-linejoin:round;stroke-dasharray:none;stroke-opacity:1"
       d="m 1135.017,702.37683 h 293.3035"
       id="path102" /><path
       style="display:inline;fill:#363c45;fill-opacity:1;stroke:#626f85;stroke-width:34.9999;stroke-linecap:round;stroke-linejoin:round;stroke-dasharray:none;stroke-opacity:1"
       d="m 439.50817,50 h 64.55464"
       id="path103" /><path
       style="display:inline;fill:#363c45;fill-opacity:1;stroke:#626f85;stroke-width:34.9999;stroke-linecap:round;stroke-linejoin:round;stroke-dasharray:none;stroke-opacity:1"
       d="M 567.53096,50 H 632.0856"
       id="path104" /><path
       style="display:inline;fill:#363c45;fill-opacity:1;stroke:#626f85;stroke-width:35;stroke-linecap:round;stroke-linejoin:round;stroke-dasharray:none;stroke-opacity:1"
       d="M 305.91401,200 H 499.74135"
       id="path105" /><path
       style="display:inline;fill:#363c45;fill-opacity:1;stroke:#626f85;stroke-width:35;stroke-linecap:round;stroke-linejoin:round;stroke-dasharray:none;stroke-opacity:1"
       d="M 555.56228,200 H 749.38962"
       id="path106" /><path
       style="display:inline;fill:#363c45;fill-opacity:1;stroke:#626f85;stroke-width:35;stroke-linecap:round;stroke-linejoin:round;stroke-dasharray:none;stroke-opacity:1"
       d="M 477.97612,300 H 771.27966"
       id="path107" /><path
       style="display:inline;fill:#363c45;fill-opacity:1;stroke:#626f85;stroke-width:35;stroke-linecap:round;stroke-linejoin:round;stroke-dasharray:none;stroke-opacity:1"
       d="m 1052.2086,101.95449 h 293.3035"
       id="path108" /><path
       style="display:inline;fill:#363c45;fill-opacity:1;stroke:#626f85;stroke-width:34.9999;stroke-linecap:round;stroke-linejoin:round;stroke-dasharray:none;stroke-opacity:1"
       d="m 91.03935,450 h 89.49866"
       id="path109" /><path
       style="display:inline;fill:#363c45;fill-opacity:1;stroke:#626f85;stroke-width:34.9999;stroke-linecap:round;stroke-linejoin:round;stroke-dasharray:none;stroke-opacity:1"
       d="m 231.30752,400 h 89.49866"
       id="path110" /></g><g
     id="layer8"><text
       xml:space="preserve"
       style="font-weight:bold;font-size:50.5334px;font-family:Cantarell;-inkscape-font-specification:'Cantarell Bold';text-align:start;writing-mode:lr-tb;direction:ltr;text-anchor:start;fill:#363c45;fill-opacity:1;stroke:#626f85;stroke-width:35;stroke-linecap:round;stroke-linejoin:round;stroke-dasharray:none;stroke-opacity:1"
       x="472.29471"
       y="109.04195"
       id="text80"
       transform="scale(0.98944451,1.0106681)"><tspan
         id="tspan80"
         x="472.29471"
         y="109.04195"
         style="font-size:50.5334px;fill:#626f85;fill-opacity:1;stroke:none;stroke-width:35"
         dy="5"
         dx="0">function run(arg1, arg2)</tspan></text><text
       xml:space="preserve"
       style="font-weight:bold;font-size:50.5334px;font-family:Cantarell;-inkscape-font-specification:'Cantarell Bold';text-align:start;writing-mode:lr-tb;direction:ltr;text-anchor:start;fill:#363c45;fill-opacity:1;stroke:#626f85;stroke-width:35;stroke-linecap:round;stroke-linejoin:round;stroke-dasharray:none;stroke-opacity:1"
       x="87.70993"
       y="164.55966"
       id="text86"
       transform="scale(0.98944451,1.0106681)"><tspan
         id="tspan86"
         x="87.70993"
         y="164.55966"
         style="font-size:50.5334px;fill:#626f85;fill-opacity:1;stroke:none;stroke-width:35">onclick = () =&gt; {}</tspan></text><text
       xml:space="preserve"
       style="font-weight:bold;font-size:50.5334px;font-family:Cantarell;-inkscape-font-specification:'Cantarell Bold';text-align:start;writing-mode:lr-tb;direction:ltr;text-anchor:start;fill:#363c45;fill-opacity:1;stroke:#626f85;stroke-width:35;stroke-linecap:round;stroke-linejoin:round;stroke-dasharray:none;stroke-opacity:1"
       x="77.075912"
       y="260.72531"
       id="text87"
       transform="scale(0.98944451,1.0106681)"><tspan
         id="tspan87"
         x="77.075912"
         y="260.72531"
         style="font-size:50.5334px;fill:#626f85;fill-opacity:1;stroke:none;stroke-width:35">{a: 100, b: 100, x=0, y=0}</tspan></text><text
       xml:space="preserve"
       style="font-weight:bold;font-size:50.5334px;font-family:Cantarell;-inkscape-font-specification:'Cantarell Bold';text-align:start;writing-mode:lr-tb;direction:ltr;text-anchor:start;fill:#363c45;fill-opacity:1;stroke:#626f85;stroke-width:35;stroke-linecap:round;stroke-linejoin:round;stroke-dasharray:none;stroke-opacity:1"
       x="212.95946"
       y="457.41498"
       id="text88"
       transform="scale(0.98944451,1.0106681)"><tspan
         id="tspan88"
         x="212.95946"
         y="457.41498"
         style="font-size:50.5334px;fill:#626f85;fill-opacity:1;stroke:none;stroke-width:35">return true;</tspan></text><text
       xml:space="preserve"
       style="font-weight:bold;font-size:50.5334px;font-family:Cantarell;-inkscape-font-specification:'Cantarell Bold';text-align:start;writing-mode:lr-tb;direction:ltr;text-anchor:start;fill:#363c45;fill-opacity:1;stroke:#626f85;stroke-width:35;stroke-linecap:round;stroke-linejoin:round;stroke-dasharray:none;stroke-opacity:1"
       x="36.040089"
       y="508.32574"
       id="text89"
       transform="scale(0.98944451,1.0106681)"><tspan
         id="tspan89"
         x="36.040089"
         y="508.32574"
         style="font-size:50.5334px;fill:#626f85;fill-opacity:1;stroke:none;stroke-width:35">body { color: #fff; }</tspan></text><text
       xml:space="preserve"
       style="font-weight:bold;font-size:50.5334px;font-family:Cantarell;-inkscape-font-specification:'Cantarell Bold';text-align:start;writing-mode:lr-tb;direction:ltr;text-anchor:start;fill:#363c45;fill-opacity:1;stroke:#626f85;stroke-width:35;stroke-linecap:round;stroke-linejoin:round;stroke-dasharray:none;stroke-opacity:1"
       x="879.17456"
       y="1007.4566"
       id="text90"
       transform="scale(0.98944451,1.0106681)"><tspan
         id="tspan90"
         x="879.17456"
         y="1007.4566"
         style="font-size:50.5334px;fill:#626f85;fill-opacity:1;stroke:none;stroke-width:35">&lt;!DOCTYPE html&gt;</tspan></text><text
       xml:space="preserve"
       style="font-weight:bold;font-size:50.5334px;font-family:Cantarell;-inkscape-font-specification:'Cantarell Bold';text-align:start;writing-mode:lr-tb;direction:ltr;text-anchor:start;fill:#363c45;fill-opacity:1;stroke:#626f85;stroke-width:35;stroke-linecap:round;stroke-linejoin:round;stroke-dasharray:none;stroke-opacity:1"
       x="779.60577"
       y="1054.4775"
       id="text97"
       transform="scale(0.98944451,1.0106681)"><tspan
         id="tspan97"
         x="779.60577"
         y="1054.4775"
         style="font-size:50.5334px;fill:#626f85;fill-opacity:1;stroke:none;stroke-width:35">&lt;section class=&quot;main&quot;&gt;</tspan></text><text
       xml:space="preserve"
       style="font-weight:bold;font-size:50.5334px;font-family:Cantarell;-inkscape-font-specification:'Cantarell Bold';text-align:start;writing-mode:lr-tb;direction:ltr;text-anchor:start;fill:#363c45;fill-opacity:1;stroke:#626f85;stroke-width:35;stroke-linecap:round;stroke-linejoin:round;stroke-dasharray:none;stroke-opacity:1"
       x="552.78418"
       y="906.60236"
       id="text98"
       transform="scale(0.98944451,1.0106681)"><tspan
         id="tspan98"
         x="552.78418"
         y="906.60236"
         style="font-size:50.5334px;fill:#626f85;fill-opacity:1;stroke:none;stroke-width:35">1010 11 00 1111 0110 11</tspan></text><text
       xml:space="preserve"
       style="font-weight:bold;font-size:50.5334px;font-family:Cantarell;-inkscape-font-specification:'Cantarell Bold';text-align:start;writing-mode:lr-tb;direction:ltr;text-anchor:start;fill:#363c45;fill-opacity:1;stroke:#626f85;stroke-width:35;stroke-linecap:round;stroke-linejoin:round;stroke-dasharray:none;stroke-opacity:1"
       x="1211.3363"
       y="855.63202"
       id="text99"
       transform="scale(0.98944451,1.0106681)"><tspan
         id="tspan99"
         x="1211.3363"
         y="855.63202"
         style="font-size:50.5334px;fill:#626f85;fill-opacity:1;stroke:none;stroke-width:35">3,14159 26535 89793 23846</tspan></text><text
       xml:space="preserve"
       style="font-weight:bold;font-size:50.5334px;font-family:Cantarell;-inkscape-font-specification:'Cantarell Bold';text-align:start;writing-mode:lr-tb;direction:ltr;text-anchor:start;fill:#363c45;fill-opacity:1;stroke:#626f85;stroke-width:35;stroke-linecap:round;stroke-linejoin:round;stroke-dasharray:none;stroke-opacity:1"
       x="567.4032"
       y="806.61926"
       id="text101"
       transform="scale(0.98944451,1.0106681)"><tspan
         id="tspan101"
         x="567.4032"
         y="806.61926"
         style="font-size:50.5334px;fill:#626f85;fill-opacity:1;stroke:none;stroke-width:35">let x=100px, y=250px, w=100px, h=50px;</tspan></text><text
       xml:space="preserve"
       style="font-weight:bold;font-size:50.5334px;font-family:Cantarell;-inkscape-font-specification:'Cantarell Bold';text-align:start;writing-mode:lr-tb;direction:ltr;text-anchor:start;fill:#363c45;fill-opacity:1;stroke:#626f85;stroke-width:35;stroke-linecap:round;stroke-linejoin:round;stroke-dasharray:none;stroke-opacity:1"
       x="606.12988"
       y="164.5218"
       id="text104"
       transform="scale(0.98944451,1.0106681)"><tspan
         id="tspan104"
         x="606.12988"
         y="164.5218"
         style="font-size:50.5334px;fill:#626f85;fill-opacity:1;stroke:none;stroke-width:35">onclose = () =&gt; {}</tspan></text></g><g
     id="layer5"
     style="display:inline"><rect
       style="display:none;fill:#ffcd93;fill-opacity:1;stroke:#3d3e52;stroke-width:37.7953;stroke-linecap:butt;stroke-linejoin:round;stroke-dasharray:none;stroke-opacity:1"
       id="rect47"
       width="1179.7003"
       height="663.58142"
       x="370.14984"
       y="80.186501" /><path
       style="display:none;fill:none;fill-opacity:1;stroke:#feaf56;stroke-width:26.4567;stroke-linecap:butt;stroke-linejoin:round;stroke-dasharray:none;stroke-opacity:1"
       id="path48"
       clip-path="url(#clipPath61)"
       d="M 1364.7229,540 A 404.7229,404.7229 0 0 1 960,944.7229 404.7229,404.7229 0 0 1 555.2771,540 404.7229,404.7229 0 0 1 960,135.2771 404.7229,404.7229 0 0 1 1364.7229,540 Z" /><path
       style="display:none;fill:none;fill-opacity:1;stroke:#feaf56;stroke-width:26.4567;stroke-linecap:butt;stroke-linejoin:round;stroke-dasharray:none;stroke-opacity:1"
       id="path49"
       clip-path="url(#clipPath60)"
       d="M 1211.0956,540 A 251.09557,406.28116 0 0 1 960,946.28116 251.09557,406.28116 0 0 1 708.90443,540 251.09557,406.28116 0 0 1 960,133.71884 251.09557,406.28116 0 0 1 1211.0956,540 Z" /><path
       style="display:none;fill:none;fill-opacity:1;stroke:#feaf56;stroke-width:26.4567;stroke-linecap:butt;stroke-linejoin:round;stroke-dasharray:none;stroke-opacity:1"
       d="m 555.2771,540 h 809.4458"
       id="path50" /><path
       style="display:none;fill:none;fill-opacity:1;stroke:#feaf56;stroke-width:26.4567;stroke-linecap:butt;stroke-linejoin:round;stroke-dasharray:none;stroke-opacity:1"
       d="m 663.15804,275.15898 c 199.71555,91.00533 399.43106,85.47029 599.14666,0"
       id="path51" /><text
       xml:space="preserve"
       style="font-style:normal;font-variant:normal;font-weight:bold;font-stretch:normal;font-size:600px;font-family:'Adwaita Mono';-inkscape-font-specification:'Adwaita Mono Bold';text-align:start;letter-spacing:-20px;writing-mode:lr-tb;direction:ltr;text-anchor:start;display:inline;fill:#f0eeed;fill-opacity:1;stroke:none;stroke-width:11.3386;stroke-linecap:butt;stroke-linejoin:miter;stroke-dasharray:none;stroke-opacity:1"
       x="420.42969"
       y="737.60742"
       id="text47"><tspan
         id="tspan47"
         x="420.42969"
         y="737.60742"
         style="font-style:normal;font-variant:normal;font-weight:bold;font-stretch:normal;font-size:600px;font-family:'Liberation Mono';-inkscape-font-specification:'Liberation Mono Bold';letter-spacing:-20px;fill:#f0eeed;fill-opacity:1">DEV</tspan></text></g><g
     id="layer2"
     style="display:none"><g
       id="g47"
       transform="translate(-284.21059,-12.51169)"><path
         style="fill:#ffffff;fill-opacity:1;stroke:none;stroke-width:11.3386;stroke-linecap:butt;stroke-linejoin:miter;stroke-dasharray:none;stroke-opacity:1"
         d="m 587.6618,982.01545 c 1.86773,5.9706 -0.42984,14.2345 10.18415,15.3894 l 72.42062,2.2632 33.72086,-0.679 c 10.09501,-2.4089 12.78226,-8.7443 14.03149,-15.842 l -1.35557,-3.873 -8.37595,4.3256 -26.47879,1.1316 -42.99975,0.9053 z"
         id="path46" /><path
         style="fill:#444444;fill-opacity:1;stroke:none;stroke-width:11.3386;stroke-linecap:butt;stroke-linejoin:miter;stroke-dasharray:none;stroke-opacity:1"
         d="m 591.53974,943.94195 -3.87794,38.0735 51.14706,3.6211 42.99975,-0.9053 26.47879,-1.1316 8.37595,-4.3256 -6.56543,-18.7584 -25.57354,-8.8263 -16.52095,-1.1316 -12.4473,-5.4315 -2.195,-2.9267 -9.33979,3.9808 -23.36525,3.785 -18.72333,-0.9602 z"
         id="path45" /><path
         style="fill:#ffffff;fill-opacity:1;stroke:none;stroke-width:11.3386;stroke-linecap:butt;stroke-linejoin:miter;stroke-dasharray:none;stroke-opacity:1"
         d="m 407.85397,943.39515 1.01941,16.8942 45.4892,23.3103 c 22.6065,5.6577 45.21805,11.278 69.47854,4.7526 l 7.69469,-16.9735 -59.29438,-0.2263 z"
         id="path44" /><path
         style="fill:#444444;fill-opacity:1;stroke:none;stroke-width:11.3386;stroke-linecap:butt;stroke-linejoin:miter;stroke-dasharray:none;stroke-opacity:1"
         d="m 426.81012,909.59945 -12.39204,15.498 -6.56411,18.2977 c 19.69284,13.1772 40.9316,22.9258 64.38746,27.7573 l 59.29438,0.2263 -10.41046,-20.821 -16.97359,-8.8262 -24.21564,-12.221 z"
         id="path43" /><path
         style="fill:#fecb9e;fill-opacity:1;stroke:none;stroke-width:11.3386;stroke-linecap:butt;stroke-linejoin:miter;stroke-dasharray:none;stroke-opacity:1"
         d="m 595.85851,928.99525 44.49097,-1.3316 3.67186,18.5167 -23.36525,3.785 -18.72333,-0.9602 -10.39302,-5.0632 z"
         id="path42" /><path
         style="fill:#fecb9e;fill-opacity:1;stroke:none;stroke-width:11.3386;stroke-linecap:butt;stroke-linejoin:miter;stroke-dasharray:none;stroke-opacity:1"
         d="m 437.14757,894.67895 43.1066,17.7129 -4.6746,13.8937 4.35655,3.225 c -22.57183,-2.7936 -38.18133,-11.0897 -53.126,-19.9111 z"
         id="path41" /><path
         style="fill:#000033;fill-opacity:1;stroke:none;stroke-width:11.3386;stroke-linecap:butt;stroke-linejoin:miter;stroke-dasharray:none;stroke-opacity:1"
         d="m 492.31325,629.1082 77.13373,22.08393 55.36985,-4.80085 0.96017,16.64296 38.40684,106.89903 2.56045,45.76814 -8.96159,107.85924 -17.43322,4.103 -44.49097,1.3316 -9.76857,-0.3137 4.4808,-123.54202 -23.68422,-54.08962 -17.92319,63.69133 -52.48934,100.81791 c -20.43006,-4.5018 -40.58484,-10.0374 -59.32642,-20.8802 l -8.84572,-5.6845 49.60883,-93.77668 16.00285,-105.29874 -3.52062,-24.00428 z"
         id="path40" /><path
         style="fill:#ffffff;fill-opacity:1;stroke:none;stroke-width:11.3386;stroke-linecap:butt;stroke-linejoin:miter;stroke-dasharray:none;stroke-opacity:1"
         d="m 492.31325,629.1082 -3.20057,-6.08108 24.64438,-88.65578 35.52633,-81.29447 c 11.61694,-14.0339 25.15629,-23.38928 43.20769,-21.76387 22.41712,-2.10517 38.50876,7.28594 51.56994,22.18476 l 9.61647,1.86353 0.5108,-18.97205 17.92763,1.35132 22.6836,-9.64067 19.95332,41.61994 6.40114,1.92034 -18.88336,59.5306 c -2.26573,7.67534 -4.80061,14.86376 -12.80228,12.16216 l -39.68706,-9.6017 -14.72262,100.49788 -10.24183,12.16217 -55.36985,4.80085 z"
         id="path39" /><path
         style="fill:#fecb9e;fill-opacity:1;stroke:none;stroke-width:11.3386;stroke-linecap:butt;stroke-linejoin:miter;stroke-dasharray:none;stroke-opacity:1"
         d="m 714.75284,469.71983 -19.95332,-41.61994 2.17216,-2.02589 61.1049,-45.60237 37.11557,-41.18923 5.33596,-43.3535 16.64296,-22.72405 10.24182,-9.92176 c 7.80075,-2.42334 8.7949,2.59677 7.68137,9.92176 l -4.29958,5.00156 c 5.97136,-0.10019 8.82605,2.43066 7.18009,8.76089 l -5.60986,9.0626 c 8.63893,-4.2714 11.37351,-1.88813 11.3305,3.6257 l -11.95348,31.14001 0.33948,15.04991 -9.49741,20.84814 -9.96564,16.26743 -37.11557,44.81026 -54.34881,43.86882 z"
         id="path36" /><path
         style="fill:#fecb9e;fill-opacity:1;stroke:none;stroke-width:11.3386;stroke-linecap:butt;stroke-linejoin:miter;stroke-dasharray:none;stroke-opacity:1"
         d="m 702.27062,531.17077 18.88336,-59.5306 37.12661,11.84211 60.81082,-55.36985 -4.77569,-34.28824 4.18775,-20.46968 4.08053,-6.66085 c 8.08125,-6.71031 11.81989,-2.65455 12.66581,8.57274 l -3.62103,14.71044 30.2575,-40.98566 c 7.14268,-4.40126 11.76622,-4.06596 11.38436,5.68061 13.05442,-9.38942 15.59394,-3.73166 15.84201,5.20523 6.91624,-1.00772 12.77071,-0.7953 11.37632,7.74725 l -16.58155,21.67363 9.5052,-5.43155 c 9.47447,-5.49211 10.30113,0.34998 8.59995,9.5052 l -25.34721,33.72086 -19.91568,14.93675 -48.22015,60.01643 -30.72547,30.40541 -22.08393,8.64154 c -21.66658,-5.51956 -36.99897,-7.39941 -53.44951,-9.92177 z"
         id="path38" /><path
         style="display:inline;fill:#fecb9e;fill-opacity:1;stroke:none;stroke-width:11.3386;stroke-linecap:butt;stroke-linejoin:miter;stroke-dasharray:none;stroke-opacity:1"
         d="m 592.49108,431.313 -2.56046,-20.48365 14.48258,-9.76174 c -19.98992,4.71559 -23.96723,-9.72906 -27.68493,-24.48435 0.2049,-14.49813 8.46039,-18.66644 21.60384,-16.56296 l 14.08251,13.12234 5.52098,-4.24075 5.20995,-18.24325 -8.57054,-33.52596 30.29225,-4.98737 44.62382,-18.52781 17.74476,18.82723 16.44094,16.20089 1.5842,21.95251 -8.20099,7.93451 3.67471,15.26272 -10.071,10.74993 -2.71577,22.40514 -10.97625,19.12357 -24.85576,11.66656 -17.92763,-1.35132 -0.5108,18.97205 -9.61647,-1.86353 C 629.82995,438.24458 613.43006,428.75134 592.49108,431.313 Z"
         id="path35" /><path
         style="display:inline;fill:#000000;fill-opacity:1;stroke:#000000;stroke-width:7.55906;stroke-linecap:round;stroke-linejoin:round;stroke-dasharray:none;stroke-opacity:1"
         d="m 604.4132,401.06761 c -3.46671,4.42033 -6.66965,9.06674 -14.48258,9.76174 -6.36836,-0.1205 -17.09692,-12.59491 -26.88478,-22.40399 -20.22111,-19.71226 -18.4977,-28.45227 -23.0441,-40.32718 -2.53327,-16.33259 1.21962,-28.73632 8.32148,-39.04695 3.76186,-7.16174 8.51046,-11.03434 14.0825,-12.16216 l 3.79519,-6.25582 c 5.35836,-13.71621 13.72291,-25.78618 31.67289,-32.60698 13.39392,-3.1233 29.33905,-13.79845 64.58051,-1.69736 15.5492,-15.32834 22.65918,-13.21564 29.33209,-10.19965 12.12914,6.60632 16.5916,14.74598 13.63321,24.36982 -1.11215,9.28015 -5.19354,17.44683 -15.92853,23.11842 -12.89555,8.07955 -28.43566,14.41981 -44.62382,18.52781 l -30.29225,4.98737 c 5.82583,9.09447 8.97886,13.92153 8.57054,33.52596 -0.50846,6.1775 -2.13169,12.37931 -5.20995,18.24325 -0.94381,2.04114 -2.45439,3.68555 -5.52098,4.24075 -5.84904,-1.17941 -7.80764,-9.86201 -14.08251,-13.12234 -10.55502,-4.51575 -23.05866,3.72975 -21.60384,16.56296 2.82447,19.52752 12.58717,28.74942 27.68493,24.48435 z"
         id="path1" /><path
         style="display:inline;fill:none;fill-opacity:1;stroke:#000000;stroke-width:7.55906;stroke-linecap:round;stroke-linejoin:round;stroke-dasharray:none;stroke-opacity:1"
         d="m 655.55613,319.59305 -8.65652,9.95783"
         id="path8" /><path
         style="display:inline;fill:none;fill-opacity:1;stroke:#000000;stroke-width:7.55906;stroke-linecap:round;stroke-linejoin:round;stroke-dasharray:none;stroke-opacity:1"
         d="m 644.91935,347.65604 c 1.15035,-13.28216 4.07903,-16.38767 8.82627,-19.68936 5.31827,-2.30869 10.32751,-5.35905 18.55778,-0.67894 8.64191,7.36359 11.43122,16.19033 12.89993,25.34722 -0.66398,10.18622 -4.106,16.19388 -13.35256,21.72618 -8.46059,2.91653 -14.32795,-1.09434 -19.91567,-6.78943 -5.63809,-5.81368 -6.02338,-11.13004 -7.01575,-19.91567 z"
         id="path2" /><path
         style="display:inline;fill:none;fill-opacity:1;stroke:#000000;stroke-width:7.55906;stroke-linecap:round;stroke-linejoin:round;stroke-dasharray:none;stroke-opacity:1"
         d="m 694.2559,333.39823 c 1.15271,-9.01032 4.13365,-13.23259 10.8631,-15.38939 9.21809,-1.12361 15.7417,3.4717 18.55778,10.63678 2.91161,9.70104 2.19661,15.77548 1.5842,21.95251 -1.39198,5.6992 -5.17139,8.10572 -11.99466,8.37363 -5.03843,-0.59176 -9.74486,-3.86943 -13.57887,-9.27889 -2.84039,-2.75784 -4.15634,-6.42752 -5.43155,-16.29464 z"
         id="path3" /><path
         style="display:inline;fill:none;fill-opacity:1;stroke:#000000;stroke-width:11.3386;stroke-linecap:butt;stroke-linejoin:miter;stroke-dasharray:none;stroke-opacity:1"
         d="m 623.14555,350.65864 21.7738,-3.0026"
         id="path5" /><path
         style="display:inline;fill:none;fill-opacity:1;stroke:#000000;stroke-width:11.3386;stroke-linecap:butt;stroke-linejoin:round;stroke-dasharray:none;stroke-opacity:1"
         d="m 681.11646,338.59633 13.13944,-5.1981"
         id="path6" /><path
         style="display:inline;fill:none;fill-opacity:1;stroke:#000000;stroke-width:5.66929;stroke-linecap:round;stroke-linejoin:round;stroke-dasharray:none;stroke-opacity:1"
         d="m 689.49108,293.6175 c 7.34524,6.24628 11.67957,12.3676 17.74476,18.82723 -5.5189,-0.41686 -6.23412,1.2481 -7.49181,3.18781"
         id="path7" /><path
         style="display:inline;fill:none;fill-opacity:1;stroke:#000000;stroke-width:7.55906;stroke-linecap:round;stroke-linejoin:round;stroke-dasharray:none;stroke-opacity:1"
         d="m 661.85718,354.77981 c 2.57897,-3.3597 -1.19003,-3.08998 3.31278,-0.66585"
         id="path9" /><path
         style="display:inline;fill:none;fill-opacity:1;stroke:#000000;stroke-width:7.55906;stroke-linecap:round;stroke-linejoin:round;stroke-dasharray:none;stroke-opacity:1"
         d="m 708.7379,341.75181 c 1.8642,-0.6638 -0.20633,-2.41537 2.83256,-0.20482"
         id="path10" /><path
         style="display:inline;fill:none;fill-opacity:1;stroke:#000000;stroke-width:5.66929;stroke-linecap:round;stroke-linejoin:round;stroke-dasharray:none;stroke-opacity:1"
         d="m 717.05999,358.53264 c 1.58556,5.3233 3.81227,10.5804 3.67471,15.26272 -0.61709,4.84789 -3.90643,8.46242 -10.071,10.74993 0.0716,6.98312 0.98952,15.00372 -2.71577,22.40514 -4.52553,11.28291 -7.2317,16.33651 -10.97625,19.12357 -8.79475,8.73506 -16.38291,9.76246 -24.85576,11.66656 -11.49863,0.99569 -21.23695,-1.40936 -32.17548,-6.57449"
         id="path11" /><path
         style="display:inline;fill:none;fill-opacity:1;stroke:#000000;stroke-width:7.55906;stroke-linecap:round;stroke-linejoin:round;stroke-dasharray:none;stroke-opacity:1"
         d="m 679.99809,399.93468 c 3.25986,-0.0272 8.53183,-2.61535 8.82627,1.13157"
         id="path12" /><path
         style="fill:none;fill-opacity:1;stroke:#000000;stroke-width:5.66929;stroke-linecap:round;stroke-linejoin:round;stroke-dasharray:none;stroke-opacity:1"
         d="m 696.97168,426.074 c 20.3683,-14.19071 40.7366,-25.85794 61.1049,-45.60237 14.26069,-14.25361 27.63724,-28.26201 37.11557,-41.18923 0.25569,-18.41086 2.06279,-32.78807 5.33596,-43.3535 5.95006,-9.98914 11.27814,-16.24639 16.64296,-22.72405 l 10.24182,-9.92176 c 4.45449,-1.95395 8.56012,-2.93885 7.68137,9.92176 l -15.68279,18.24325 c -2.39263,2.67314 -5.84997,4.59619 -10.01551,18.58605"
         id="path13" /><path
         style="fill:none;fill-opacity:1;stroke:#000000;stroke-width:5.66929;stroke-linecap:round;stroke-linejoin:round;stroke-dasharray:none;stroke-opacity:1"
         d="m 830.79468,278.20641 c 3.70121,0.75903 8.67356,-0.58257 7.18009,8.76089 -4.18007,8.05864 -8.75391,13.06865 -12.72226,18.16323 -2.82327,3.67628 -5.09981,8.03256 -6.7463,15.23919"
         id="path14" /><path
         style="fill:none;fill-opacity:1;stroke:#000000;stroke-width:5.66929;stroke-linecap:round;stroke-linejoin:round;stroke-dasharray:none;stroke-opacity:1"
         d="m 832.36491,296.0299 c 3.66386,-5.56105 14.11351,-4.29939 11.3305,3.6257 l -7.99297,15.86379 c -1.63095,3.58836 -3.48227,6.11051 -3.96051,15.27622 l 0.33948,15.04991 c 0.0935,3.75632 -0.57469,7.6396 -4.07366,11.99467 l -15.38939,25.1209 c -11.592,17.79623 -24.25823,31.65361 -37.11557,44.81026 -14.39996,16.79079 -35.14344,29.88119 -54.34881,43.86882 l -6.40114,-1.92034 -19.95332,-41.61994"
         id="path15" /><path
         style="fill:none;fill-opacity:1;stroke:#000000;stroke-width:5.66929;stroke-linecap:round;stroke-linejoin:round;stroke-dasharray:none;stroke-opacity:1"
         d="m 822.584,366.69366 c 3.4164,0.75805 9.18818,-8.90098 12.66581,8.57274 l -3.62103,14.71044 c 4.41831,-4.81068 8.08897,-10.21666 11.76835,-15.6157 l 18.48915,-25.36996 c 5.50132,-5.97993 13.18738,-2.88648 11.38436,5.68061 l -17.3211,25.17346"
         id="path16" /><path
         style="fill:none;fill-opacity:1;stroke:#000000;stroke-width:5.66929;stroke-linecap:round;stroke-linejoin:round;stroke-dasharray:none;stroke-opacity:1"
         d="m 873.27064,354.67179 3.925,-3.87245 c 4.6602,-3.06182 15.43031,-0.83711 11.91701,9.07768 -8.33533,8.9304 -15.2952,19.6922 -22.35257,30.11355"
         id="path17" /><path
         style="fill:none;fill-opacity:1;stroke:#000000;stroke-width:5.66929;stroke-linecap:round;stroke-linejoin:round;stroke-dasharray:none;stroke-opacity:1"
         d="m 889.11265,359.87702 c 5.46706,-2.87604 12.98238,0.0172 11.37632,7.74725 l -16.58155,21.67363 -8.37364,11.99466 17.87884,-17.42621 c 5.48049,-4.5689 14.46502,-0.88612 8.59995,9.5052 l -12.6736,17.19991 c -4.78019,6.74889 -8.43311,11.93081 -12.67361,16.52095 -6.33769,6.46575 -12.67335,6.95119 -19.91568,14.93675 l -16.85456,20.32936 c -9.46357,12.54556 -20.08318,25.34428 -31.36559,39.68707 -9.57652,11.7984 -19.94474,21.61754 -30.72547,30.40541 -5.82851,5.07022 -13.26865,7.83813 -22.08393,8.64154 -18.06523,-1.46191 -35.84104,-4.82582 -53.44951,-9.92177 8.65393,-19.84353 13.76255,-39.68707 18.88336,-59.5306 12.37554,6.84456 24.75107,10.54289 37.12661,11.84211 23.37423,-16.68293 43.40907,-35.27408 60.81082,-55.36985 -2.11637,-11.07976 -5.05415,-21.61192 -4.77569,-34.28824 0.0851,-8.88306 2.75783,-13.69988 4.18775,-20.46968"
         id="path18" /><path
         style="fill:none;fill-opacity:1;stroke:#000000;stroke-width:5.66929;stroke-linecap:round;stroke-linejoin:round;stroke-dasharray:none;stroke-opacity:1"
         d="M 714.75284,469.71983 C 654.70071,454.02689 616.41544,447.66261 592.17102,447.31584"
         id="path19" /><path
         style="fill:none;fill-opacity:1;stroke:#000000;stroke-width:5.66929;stroke-linecap:round;stroke-linejoin:round;stroke-dasharray:none;stroke-opacity:1"
         d="m 653.67749,455.36129 0.5108,-18.97205"
         id="path20" /><path
         style="fill:none;fill-opacity:1;stroke:#000000;stroke-width:5.66929;stroke-linecap:round;stroke-linejoin:round;stroke-dasharray:none;stroke-opacity:1"
         d="M 644.06102,453.49776 C 633.07789,437.52109 621.41741,433.20427 592.49108,431.313 l -2.56046,-20.48365"
         id="path21" /><path
         style="fill:none;fill-opacity:1;stroke:#000000;stroke-width:5.66929;stroke-linecap:round;stroke-linejoin:round;stroke-dasharray:none;stroke-opacity:1"
         d="m 592.49108,431.313 c -17.0633,-0.52291 -31.69017,6.07604 -43.20769,21.76387 -14.30468,19.16322 -24.98305,50.01118 -35.52633,81.29447 -8.70795,25.85323 -17.58444,50.44246 -24.64438,88.65578 -0.47893,3.38031 0.36339,5.60391 3.20057,6.08108 21.05899,8.55117 34.33895,15.04495 77.13373,22.08393 29.94771,0.57371 47.74785,-1.15077 55.36985,-4.80085 10.74732,-6.37228 9.21339,-9.50193 10.24183,-12.16217 4.25089,-34.15595 9.69578,-67.11788 14.72262,-100.49788 l -44.48792,-12.80228"
         id="path22" /><path
         style="fill:none;fill-opacity:1;stroke:#000000;stroke-width:5.66929;stroke-linecap:round;stroke-linejoin:round;stroke-dasharray:none;stroke-opacity:1"
         d="m 649.78128,533.73123 c 13.22902,4.48899 26.45804,8.11728 39.68706,9.6017 6.0555,0.35309 9.67215,-1.57009 11.20199,-5.44096 l 1.60029,-6.7212"
         id="path23" /><path
         style="fill:none;fill-opacity:1;stroke:#000000;stroke-width:5.66929;stroke-linecap:round;stroke-linejoin:round;stroke-dasharray:none;stroke-opacity:1"
         d="m 492.31325,629.1082 c -1.47364,4.71229 -2.47776,15.55462 -1.92034,36.80655 2.13614,7.37857 3.91761,14.98662 3.52062,24.00428 l -16.00285,105.29874 -49.60883,93.77668 c 19.55169,13.4693 41.98453,22.7477 68.17214,26.5647 l 52.48934,-100.81791 17.92319,-63.69133 -31.68564,-58.89049"
         id="path24" /><path
         style="fill:none;fill-opacity:1;stroke:#000000;stroke-width:5.66929;stroke-linecap:round;stroke-linejoin:round;stroke-dasharray:none;stroke-opacity:1"
         d="m 566.88652,751.04991 23.68422,54.08962 -4.4808,123.54202 c 29.50057,1.0945 56.52817,0.9526 71.69276,-5.1209 l 8.96159,-107.85924 -2.56045,-45.76814 -38.40684,-106.89903 -0.96017,-16.64296"
         id="path25" /><path
         style="fill:none;fill-opacity:1;stroke:#000000;stroke-width:5.66929;stroke-linecap:round;stroke-linejoin:round;stroke-dasharray:none;stroke-opacity:1"
         d="m 437.14757,894.67895 c -7.30967,10.5125 -13.66865,16.3829 -22.72949,30.4185 -5.13642,7.0132 -8.28785,15.9166 -9.16573,24.3288 -0.26947,4.9997 0.98228,8.579 3.62103,10.8631 15.64793,10.0328 30.74554,17.4974 45.4892,23.3103 12.89742,4.8746 26.63672,6.8025 40.73661,7.4684 15.13586,-0.1743 25.07042,-1.033 28.74193,-2.7158 5.28508,-4.0577 7.53539,-9.9006 7.69469,-16.9735 -1.20604,-9.3662 -4.98459,-15.9761 -10.41046,-20.821 -7.51861,-5.6298 -12.06587,-6.9677 -16.97359,-8.8262 l -24.21564,-12.221 -4.35655,-3.225 0.73552,-2.6592 3.93908,-11.2345"
         id="path26" /><path
         style="fill:none;fill-opacity:1;stroke:#000000;stroke-width:5.66929;stroke-linecap:round;stroke-linejoin:round;stroke-dasharray:none;stroke-opacity:1"
         d="m 479.93612,929.51055 c -22.17618,-2.1695 -37.36982,-11.3216 -53.126,-19.9111"
         id="path27" /><path
         style="fill:none;fill-opacity:1;stroke:#000000;stroke-width:5.66929;stroke-linecap:round;stroke-linejoin:round;stroke-dasharray:none;stroke-opacity:1"
         d="m 530.54003,969.38715 c -7.76226,5.6649 -29.82762,6.0045 -58.2986,1.7653 -25.07297,-5.1262 -45.62319,-15.4212 -64.38746,-27.7573"
         id="path28" /><path
         style="fill:none;fill-opacity:1;stroke:#000000;stroke-width:5.66929;stroke-linecap:round;stroke-linejoin:round;stroke-dasharray:none;stroke-opacity:1"
         d="m 478.80454,943.31575 c 3.71036,-6.3985 8.0563,-8.348 12.14847,-12.0737"
         id="path29" /><path
         style="fill:none;fill-opacity:1;stroke:#000000;stroke-width:5.66929;stroke-linecap:round;stroke-linejoin:round;stroke-dasharray:none;stroke-opacity:1"
         d="m 492.6333,951.08555 c 3.99273,-5.4167 7.72695,-6.9557 11.51846,-9.354 l -1.99676,-5.6087 -7.39579,0.8685"
         id="path30" /><path
         style="fill:none;fill-opacity:1;stroke:#000000;stroke-width:5.66929;stroke-linecap:round;stroke-linejoin:round;stroke-dasharray:none;stroke-opacity:1"
         d="m 595.85851,928.99525 -5.70725,19.752 c -4.5081,11.9068 -3.22368,22.5264 -2.48946,33.2682 -0.0823,7.0857 0.76032,13.651 10.18415,15.3894 l 72.42062,2.2632 c 12.09431,0.2617 25.57335,1.31455 33.72086,-0.679 8.18276,-2.584 13.67635,-7.2367 14.03149,-15.842 -0.92003,-11.3285 -3.99697,-17.9117 -7.921,-22.6314 -7.85033,-5.6388 -16.5199,-8.0007 -25.57354,-8.8263 l -16.52095,-1.1316 -12.4473,-5.4315 c -1.39855,-6.3136 -6.98259,-0.9613 -11.53479,1.0541 l -1.81776,-6.033 -1.8541,-12.4837"
         id="path31" /><path
         style="fill:none;fill-opacity:1;stroke:#000000;stroke-width:5.66929;stroke-linecap:round;stroke-linejoin:round;stroke-dasharray:none;stroke-opacity:1"
         d="m 653.36113,942.19955 c -7.48355,5.1522 -20.63874,6.0507 -32.70504,7.7658 -5.42302,0.7707 -11.4932,0.6786 -18.72333,-0.9602 -5.08232,-0.8787 -7.64812,-3.0158 -10.39302,-5.0632"
         id="path32" /><path
         style="fill:none;fill-opacity:1;stroke:#000000;stroke-width:5.66929;stroke-linecap:round;stroke-linejoin:round;stroke-dasharray:none;stroke-opacity:1"
         d="m 587.6618,982.01545 51.14706,3.6211 42.99975,-0.9053 26.47879,-1.1316 c 3.46977,-0.8996 5.95303,-2.5885 8.37595,-4.3256"
         id="path33" /><path
         style="fill:none;fill-opacity:1;stroke:#000000;stroke-width:5.66929;stroke-linecap:round;stroke-linejoin:round;stroke-dasharray:none;stroke-opacity:1"
         d="m 667.54444,965.24805 c 1.6821,-5.2821 4.33978,-9.8888 7.40324,-14.2146 l -0.92209,-4.0286 -6.00107,0.32 -2.72048,-2.8005 c -4.24545,4.1658 -8.42458,5.9372 -13.20235,13.5224"
         id="path34" /><path
         style="fill:#ff0000;fill-opacity:1;stroke:none;stroke-width:11.3386;stroke-linecap:butt;stroke-linejoin:miter;stroke-dasharray:none;stroke-opacity:1"
         d="M 837.82255,297.77632 Z"
         id="path37" /></g></g></svg>
